<?xml version="1.0" encoding="UTF-8"?>
<svg id="Layer_2" data-name="Layer 2" xmlns="http://www.w3.org/2000/svg" xmlns:xlink="http://www.w3.org/1999/xlink" viewBox="0 0 383.79 114.67">
  <defs>
    <style>
      .cls-1 {
        fill: #fff;
        stroke-width: 0px;
      }

      .cls-2 {
        filter: url(#outer-glow-1);
      }
    </style>
    <filter id="outer-glow-1" filterUnits="userSpaceOnUse">
      <feOffset dx="0" dy="0"/>
      <feGaussianBlur result="blur" stdDeviation="36.4"/>
      <feFlood flood-color="#262626" flood-opacity=".5"/>
      <feComposite in2="blur" operator="in"/>
      <feComposite in="SourceGraphic"/>
    </filter>
  </defs>
  <g id="Capa_1" data-name="Capa 1">
    <g class="cls-2">
      <path class="cls-1" d="m370.72,34.26c2.67-.85,4.97-2.04,6.9-3.59,1.93-1.55,3.44-3.41,4.54-5.6,1.09-2.18,1.64-4.63,1.64-7.33s-.53-5.05-1.59-7.23c-1.06-2.18-2.54-4.06-4.44-5.62-1.9-1.56-4.16-2.77-6.8-3.62-2.63-.85-5.52-1.27-8.67-1.27s-6.11.44-8.79,1.32c-2.68.88-5,2.11-6.95,3.69-1.95,1.58-3.46,3.47-4.54,5.67-1.08,2.2-1.61,4.62-1.61,7.26s.54,5.09,1.61,7.26c1.08,2.17,2.58,4.02,4.51,5.55,1.93,1.53,4.21,2.71,6.85,3.54,2.63.83,5.5,1.25,8.62,1.25s6.05-.42,8.72-1.27m-15.49-3.54c-2.09-.54-3.88-1.36-5.39-2.47-1.5-1.11-2.67-2.52-3.51-4.23-.84-1.71-1.26-3.72-1.26-6.04s.42-4.36,1.26-6.13c.84-1.78,2.02-3.26,3.54-4.45,1.52-1.19,3.33-2.09,5.44-2.71,2.1-.62,4.42-.93,6.95-.93,2.12,0,4.19.24,6.2.71,2.02.47,3.81,1.26,5.38,2.35,1.57,1.09,2.85,2.53,3.82,4.33.97,1.79,1.46,3.99,1.46,6.6,0,1.5-.27,3.06-.8,4.69-.53,1.63-1.44,3.12-2.74,4.47-1.3,1.35-3.04,2.46-5.23,3.32-2.19.86-4.96,1.3-8.31,1.3-2.46,0-4.74-.27-6.82-.81m-19.44,4.28l-14.41-15.01c1.64,0,3.22-.19,4.74-.56,1.52-.37,2.88-.97,4.08-1.78,1.2-.81,2.15-1.85,2.87-3.1.72-1.25,1.08-2.78,1.08-4.57,0-1.5-.26-2.82-.79-3.96-.53-1.14-1.27-2.1-2.23-2.88-.96-.78-2.1-1.38-3.44-1.78-1.33-.41-2.79-.61-4.36-.61h-28.51v34.26h4.92v-15.01h15.64l14.26,15.01h6.15Zm-36.05-18.96V4.69h20.92c.48,0,1.04.02,1.69.05.65.03,1.31.11,1.97.24.67.13,1.31.29,1.92.49.62.2,1.09.47,1.44.83.65.62,1.17,1.21,1.56,1.78.39.57.59,1.18.59,1.83,0,1.14-.21,2.11-.61,2.91-.41.8-.92,1.41-1.54,1.83-.55.36-1.04.64-1.49.83-.45.19-.91.33-1.39.42-.48.08-1.02.13-1.61.15-.6.02-1.31.02-2.13.02-.21-.03-.41-.05-.62-.05h-20.72Zm-24.92,18.23c2.67-.85,4.97-2.04,6.9-3.59,1.93-1.55,3.44-3.41,4.54-5.6,1.09-2.18,1.64-4.63,1.64-7.33s-.53-5.05-1.59-7.23c-1.06-2.18-2.54-4.06-4.44-5.62-1.9-1.56-4.16-2.77-6.79-3.62-2.63-.85-5.52-1.27-8.67-1.27s-6.11.44-8.79,1.32c-2.68.88-5,2.11-6.95,3.69-1.95,1.58-3.46,3.47-4.54,5.67-1.08,2.2-1.62,4.62-1.62,7.26s.54,5.09,1.62,7.26c1.08,2.17,2.58,4.02,4.51,5.55,1.93,1.53,4.21,2.71,6.85,3.54,2.63.83,5.5,1.25,8.62,1.25s6.05-.42,8.72-1.27m-15.49-3.54c-2.09-.54-3.88-1.36-5.39-2.47-1.5-1.11-2.68-2.52-3.51-4.23-.84-1.71-1.26-3.72-1.26-6.04s.42-4.36,1.26-6.13c.84-1.78,2.02-3.26,3.54-4.45,1.52-1.19,3.33-2.09,5.44-2.71,2.1-.62,4.42-.93,6.95-.93,2.12,0,4.19.24,6.21.71,2.02.47,3.81,1.26,5.39,2.35,1.57,1.09,2.85,2.53,3.82,4.33.97,1.79,1.46,3.99,1.46,6.6,0,1.5-.26,3.06-.79,4.69-.53,1.63-1.44,3.12-2.74,4.47-1.3,1.35-3.04,2.46-5.23,3.32-2.19.86-4.96,1.3-8.31,1.3-2.46,0-4.73-.27-6.82-.81m-61.69,4.23h30.77c3.83,0,6.74-.82,8.74-2.47,2-1.64,3-4,3-7.06,0-2.22-.56-4.02-1.69-5.4-1.13-1.38-2.96-2.34-5.49-2.86v-.15c1.85-.29,3.31-1.18,4.38-2.66,1.08-1.48,1.62-3.25,1.62-5.3,0-2.64-.95-4.69-2.85-6.16-1.9-1.47-4.71-2.2-8.44-2.2h-30.05v34.26Zm4.82-19.55V4.69h22.87c1.54,0,2.86.07,3.97.2,1.11.13,2.03.38,2.77.73.73.36,1.27.88,1.61,1.56.34.68.51,1.58.51,2.69,0,1.04-.16,1.92-.49,2.64-.33.72-.85,1.29-1.59,1.71-.74.42-1.71.73-2.92.9-1.21.18-2.71.27-4.49.27h-22.26Zm0,15.54v-11.63h21.9c2.05,0,3.78.08,5.18.24,1.4.16,2.54.47,3.41.93.87.46,1.5,1.07,1.9,1.86.39.78.59,1.79.59,3.03s-.21,2.22-.62,2.96c-.41.73-1.08,1.3-2,1.69-.92.39-2.14.64-3.64.76-1.51.12-3.37.17-5.59.17h-21.13Zm-42.92,4.01h32.46v-3.96h-27.64V.68h-4.82v34.26Zm-6.41.05l-14.41-15.01c1.64,0,3.22-.19,4.74-.56,1.52-.37,2.88-.97,4.08-1.78,1.2-.81,2.15-1.85,2.87-3.1.72-1.25,1.08-2.78,1.08-4.57,0-1.5-.27-2.82-.8-3.96-.53-1.14-1.27-2.1-2.23-2.88-.96-.78-2.1-1.38-3.44-1.78-1.33-.41-2.79-.61-4.36-.61h-28.51v34.26h4.92v-15.01h15.64l14.26,15.01h6.15Zm-36.05-18.96V4.69h20.92c.48,0,1.04.02,1.69.05.65.03,1.31.11,1.97.24.67.13,1.31.29,1.92.49.61.2,1.09.47,1.44.83.65.62,1.17,1.21,1.56,1.78.39.57.59,1.18.59,1.83,0,1.14-.21,2.11-.61,2.91-.41.8-.92,1.41-1.54,1.83-.55.36-1.04.64-1.49.83-.45.19-.91.33-1.38.42-.48.08-1.02.13-1.62.15-.6.02-1.31.02-2.13.02-.21-.03-.41-.05-.62-.05h-20.72Zm-43.08,6.99c1.71-2.9,3.42-5.78,5.13-8.63,1.71-2.85,3.49-5.68,5.33-8.48,1.88,2.77,3.68,5.59,5.38,8.46,1.71,2.87,3.4,5.75,5.08,8.65h-20.92Zm27.54,11.93h5.64L86.11.68h-3.18l-21.08,34.26h5.64l4.72-7.87h24.67l4.67,7.87ZM52.21.73l-22.51,29.13L6.93.73H2.37v34.21h4.82v-15.84l-.51-11.49,21.28,27.32h3.28L52.52,7.62l-.46,11.49v15.84h4.82V.73h-4.67Z"/>
      <g>
        <polygon class="cls-1" points="0 58.4 10.69 58.4 44.8 107.29 78.9 58.4 89.59 58.4 50.62 114.06 38.96 114.06 0 58.4"/>
        <rect class="cls-1" x="101.03" y="58.4" width="9.53" height="55.66"/>
        <path class="cls-1" d="m127.58,96.53h8.94v3.92c0,5.46,3.7,8.07,15.56,8.07h29.54c13.8,0,17.88-2.3,17.88-10.3,0-7-3.5-8.76-15.35-8.76h-18.08c-29.06,0-38.57-1.38-38.57-16.14,0-12.69,9.52-15.53,29.15-15.53h20.5c23.61,0,29.54,4.77,29.54,14.68v1.93h-8.95c-.19-8.84-1.36-10.46-26.33-10.46h-10.1c-18.37,0-24.88.77-24.88,9.92,0,6.61,2.62,8.84,17.49,8.84h28.17c18.56,0,26.33,4.23,26.33,13.68v3.61c0,13.68-14.18,14.69-28.27,14.69h-26.43c-13.9,0-26.15-1.93-26.15-14.07v-4.08Z"/>
        <polygon class="cls-1" points="250.54 64.55 214.99 64.55 214.99 58.4 295.64 58.4 295.64 64.55 260.07 64.55 260.07 114.05 250.54 114.05 250.54 64.55"/>
        <polygon class="cls-1" points="303.25 102.3 294.5 114.06 283.72 114.06 325.49 58.4 337.35 58.4 379.13 114.06 368.34 114.06 359.6 102.3 355.03 96.14 331.43 64.55 307.81 96.14 303.25 102.3"/>
      </g>
    </g>
  </g>
</svg>