<?xml version="1.0" encoding="UTF-8"?>
<svg id="Layer_2" data-name="Layer 2" xmlns="http://www.w3.org/2000/svg" xmlns:xlink="http://www.w3.org/1999/xlink" viewBox="0 0 626.56 35.53">
  <defs>
    <style>
      .cls-1 {
        fill: #fff;
        stroke-width: 0px;
      }

      .cls-2 {
        filter: url(#outer-glow-1);
      }
    </style>
    <filter id="outer-glow-1" filterUnits="userSpaceOnUse">
      <feOffset dx="0" dy="0"/>
      <feGaussianBlur result="blur" stdDeviation="36.4"/>
      <feFlood flood-color="#262626" flood-opacity=".5"/>
      <feComposite in2="blur" operator="in"/>
      <feComposite in="SourceGraphic"/>
    </filter>
  </defs>
  <g id="Capa_1" data-name="Capa 1">
    <g class="cls-2">
      <path class="cls-1" d="m368.35,34.26c2.67-.85,4.97-2.04,6.9-3.59,1.93-1.55,3.44-3.41,4.54-5.6,1.09-2.18,1.64-4.63,1.64-7.33s-.53-5.05-1.59-7.23c-1.06-2.18-2.54-4.06-4.44-5.62-1.9-1.56-4.16-2.77-6.8-3.62-2.63-.85-5.52-1.27-8.67-1.27s-6.11.44-8.79,1.32c-2.69.88-5,2.11-6.95,3.69-1.95,1.58-3.46,3.47-4.54,5.67-1.08,2.2-1.61,4.62-1.61,7.26s.54,5.09,1.61,7.26c1.08,2.17,2.58,4.02,4.51,5.55,1.93,1.53,4.21,2.71,6.85,3.54,2.63.83,5.5,1.25,8.62,1.25s6.05-.42,8.72-1.27m-15.49-3.54c-2.09-.54-3.88-1.36-5.39-2.47-1.5-1.11-2.67-2.52-3.51-4.23-.84-1.71-1.26-3.72-1.26-6.04s.42-4.36,1.26-6.13c.84-1.78,2.02-3.26,3.54-4.45,1.52-1.19,3.33-2.09,5.44-2.71,2.1-.62,4.42-.93,6.95-.93,2.12,0,4.19.24,6.2.71,2.02.47,3.81,1.26,5.38,2.35,1.57,1.09,2.85,2.53,3.82,4.33.97,1.79,1.46,3.99,1.46,6.6,0,1.5-.27,3.06-.8,4.69-.53,1.63-1.44,3.12-2.74,4.47-1.3,1.35-3.04,2.46-5.23,3.32-2.19.86-4.96,1.3-8.31,1.3-2.46,0-4.74-.27-6.82-.81m-19.44,4.28l-14.41-15.01c1.64,0,3.22-.19,4.74-.56,1.52-.37,2.88-.97,4.08-1.78,1.2-.81,2.15-1.85,2.87-3.1.72-1.25,1.08-2.78,1.08-4.57,0-1.5-.26-2.82-.79-3.96-.53-1.14-1.27-2.1-2.23-2.88-.96-.78-2.1-1.38-3.44-1.78-1.33-.41-2.79-.61-4.36-.61h-28.51v34.26h4.92v-15.01h15.64l14.26,15.01h6.15Zm-36.05-18.96V4.69h20.92c.48,0,1.04.02,1.69.05.65.03,1.31.11,1.97.24.67.13,1.31.29,1.92.49.62.2,1.09.47,1.44.83.65.62,1.17,1.21,1.56,1.78.39.57.59,1.18.59,1.83,0,1.14-.21,2.11-.61,2.91-.41.8-.92,1.41-1.54,1.83-.55.36-1.04.64-1.49.83-.45.19-.91.33-1.39.42-.48.08-1.02.13-1.61.15-.6.02-1.31.02-2.13.02-.21-.03-.41-.05-.62-.05h-20.72Zm-24.92,18.23c2.67-.85,4.97-2.04,6.9-3.59,1.93-1.55,3.44-3.41,4.54-5.6,1.09-2.18,1.64-4.63,1.64-7.33s-.53-5.05-1.59-7.23c-1.06-2.18-2.54-4.06-4.44-5.62-1.9-1.56-4.16-2.77-6.79-3.62-2.63-.85-5.52-1.27-8.67-1.27s-6.11.44-8.79,1.32c-2.68.88-5,2.11-6.95,3.69-1.95,1.58-3.46,3.47-4.54,5.67-1.08,2.2-1.62,4.62-1.62,7.26s.54,5.09,1.62,7.26c1.08,2.17,2.58,4.02,4.51,5.55,1.93,1.53,4.21,2.71,6.85,3.54,2.63.83,5.5,1.25,8.62,1.25s6.05-.42,8.72-1.27m-15.49-3.54c-2.09-.54-3.88-1.36-5.39-2.47-1.5-1.11-2.68-2.52-3.51-4.23-.84-1.71-1.26-3.72-1.26-6.04s.42-4.36,1.26-6.13c.84-1.78,2.02-3.26,3.54-4.45,1.52-1.19,3.33-2.09,5.44-2.71,2.1-.62,4.42-.93,6.95-.93,2.12,0,4.19.24,6.21.71,2.02.47,3.81,1.26,5.38,2.35,1.57,1.09,2.85,2.53,3.82,4.33.97,1.79,1.46,3.99,1.46,6.6,0,1.5-.26,3.06-.79,4.69-.53,1.63-1.44,3.12-2.74,4.47-1.3,1.35-3.04,2.46-5.23,3.32-2.19.86-4.96,1.3-8.31,1.3-2.46,0-4.73-.27-6.82-.81m-61.69,4.23h30.77c3.83,0,6.74-.82,8.74-2.47,2-1.64,3-4,3-7.06,0-2.22-.56-4.02-1.69-5.4-1.13-1.38-2.96-2.34-5.49-2.86v-.15c1.85-.29,3.31-1.18,4.38-2.66,1.08-1.48,1.62-3.25,1.62-5.3,0-2.64-.95-4.69-2.85-6.16-1.9-1.47-4.71-2.2-8.44-2.2h-30.05v34.26Zm4.82-19.55V4.69h22.87c1.54,0,2.86.07,3.97.2,1.11.13,2.03.38,2.77.73.73.36,1.27.88,1.61,1.56.34.68.51,1.58.51,2.69,0,1.04-.16,1.92-.49,2.64-.33.72-.85,1.29-1.59,1.71-.74.42-1.71.73-2.92.9-1.21.18-2.71.27-4.49.27h-22.26Zm0,15.54v-11.63h21.9c2.05,0,3.78.08,5.18.24,1.4.16,2.54.47,3.41.93.87.46,1.5,1.07,1.9,1.86.39.78.59,1.79.59,3.03s-.21,2.22-.62,2.96c-.41.73-1.08,1.3-2,1.69-.92.39-2.14.64-3.64.76-1.51.12-3.37.17-5.59.17h-21.13Zm-42.92,4.01h32.46v-3.96h-27.64V.68h-4.82v34.26Zm-6.41.05l-14.41-15.01c1.64,0,3.22-.19,4.74-.56,1.52-.37,2.88-.97,4.08-1.78,1.2-.81,2.15-1.85,2.87-3.1.72-1.25,1.08-2.78,1.08-4.57,0-1.5-.27-2.82-.8-3.96-.53-1.14-1.27-2.1-2.23-2.88-.96-.78-2.1-1.38-3.44-1.78-1.33-.41-2.79-.61-4.36-.61h-28.51v34.26h4.92v-15.01h15.64l14.26,15.01h6.15Zm-36.05-18.96V4.69h20.92c.48,0,1.04.02,1.69.05.65.03,1.31.11,1.97.24.67.13,1.31.29,1.92.49.61.2,1.09.47,1.44.83.65.62,1.17,1.21,1.56,1.78.39.57.59,1.18.59,1.83,0,1.14-.21,2.11-.61,2.91-.41.8-.92,1.41-1.54,1.83-.55.36-1.04.64-1.49.83-.44.19-.91.33-1.38.42-.48.08-1.02.13-1.62.15-.6.02-1.31.02-2.13.02-.21-.03-.41-.05-.61-.05h-20.72Zm-43.08,6.99c1.71-2.9,3.42-5.78,5.13-8.63,1.71-2.85,3.49-5.68,5.33-8.48,1.88,2.77,3.68,5.59,5.38,8.46,1.71,2.87,3.4,5.75,5.08,8.65h-20.92Zm27.54,11.93h5.64L83.74.68h-3.18l-21.08,34.26h5.64l4.72-7.87h24.67l4.67,7.87ZM49.85.73l-22.51,29.13L4.56.73H0v34.21h4.82v-15.84l-.51-11.49,21.28,27.32h3.28L50.15,7.62l-.46,11.49v15.84h4.82V.73h-4.67Z"/>
      <g>
        <polygon class="cls-1" points="402.24 .36 408.57 .36 428.74 29.29 448.92 .36 455.25 .36 432.19 33.29 425.29 33.29 402.24 .36"/>
        <rect class="cls-1" x="462.02" y=".36" width="5.64" height="32.93"/>
        <path class="cls-1" d="m477.72,22.92h5.29v2.32c0,3.23,2.19,4.77,9.2,4.77h17.48c8.16,0,10.58-1.36,10.58-6.09,0-4.14-2.07-5.19-9.08-5.19h-10.7c-17.19,0-22.82-.82-22.82-9.55,0-7.51,5.63-9.19,17.25-9.19h12.13c13.97,0,17.48,2.82,17.48,8.69v1.14h-5.29c-.11-5.23-.8-6.19-15.58-6.19h-5.98c-10.87,0-14.72.46-14.72,5.87,0,3.91,1.55,5.23,10.35,5.23h16.67c10.98,0,15.58,2.5,15.58,8.1v2.14c0,8.1-8.39,8.69-16.73,8.69h-15.64c-8.22,0-15.47-1.14-15.47-8.32v-2.41Z"/>
        <polygon class="cls-1" points="550.48 4 529.44 4 529.44 .36 577.16 .36 577.16 4 556.11 4 556.11 33.29 550.48 33.29 550.48 4"/>
        <polygon class="cls-1" points="581.66 26.34 576.48 33.29 570.1 33.29 594.82 .36 601.84 .36 626.56 33.29 620.18 33.29 615 26.34 612.3 22.69 598.33 4 584.36 22.69 581.66 26.34"/>
      </g>
    </g>
  </g>
</svg>